<mxfile host="app.diagrams.net" modified="2020-10-23T14:29:25.863Z" agent="5.0 (Windows NT 10.0; Win64; x64) AppleWebKit/537.36 (KHTML, like Gecko) Chrome/86.0.4240.111 Safari/537.36 Edg/86.0.622.51" etag="Bkx09nC-GIcwvCcJK0EG" version="13.8.1" type="github" pages="2">
  <diagram id="5eA9boktEMR5bRaUJ12p" name="Page-1">
    <mxGraphModel dx="942" dy="675" grid="1" gridSize="10" guides="1" tooltips="1" connect="1" arrows="1" fold="1" page="1" pageScale="1" pageWidth="827" pageHeight="1169" math="0" shadow="0">
      <root>
        <mxCell id="0" />
        <mxCell id="1" parent="0" />
        <mxCell id="93oh4y61xV02DtYEBU_f-1" value="111" style="ellipse;shape=doubleEllipse;whiteSpace=wrap;html=1;fontSize=18;" vertex="1" parent="1">
          <mxGeometry x="380" y="110" width="170" height="120" as="geometry" />
        </mxCell>
        <mxCell id="93oh4y61xV02DtYEBU_f-2" value="&lt;h1&gt;图片&lt;/h1&gt;" style="whiteSpace=wrap;html=1;rounded=1;arcSize=50;align=center;verticalAlign=middle;strokeWidth=1;autosize=1;spacing=4;treeFolding=1;treeMoving=1;newEdgeStyle={&quot;edgeStyle&quot;:&quot;entityRelationEdgeStyle&quot;,&quot;startArrow&quot;:&quot;none&quot;,&quot;endArrow&quot;:&quot;none&quot;,&quot;segment&quot;:10,&quot;curved&quot;:1};" vertex="1" parent="1">
          <mxGeometry x="580" y="60" width="175" height="60" as="geometry" />
        </mxCell>
        <mxCell id="93oh4y61xV02DtYEBU_f-3" value="" style="edgeStyle=entityRelationEdgeStyle;startArrow=none;endArrow=none;segment=10;curved=1;exitX=1;exitY=0.5;exitDx=0;exitDy=0;entryX=0;entryY=0.5;entryDx=0;entryDy=0;" edge="1" target="93oh4y61xV02DtYEBU_f-2" parent="1" source="93oh4y61xV02DtYEBU_f-1">
          <mxGeometry relative="1" as="geometry">
            <mxPoint x="520" y="160" as="sourcePoint" />
            <mxPoint x="500" y="100" as="targetPoint" />
          </mxGeometry>
        </mxCell>
        <mxCell id="93oh4y61xV02DtYEBU_f-4" value="Entity" style="shape=ext;margin=3;double=1;whiteSpace=wrap;html=1;align=center;fontSize=18;strokeColor=#66FF66;" vertex="1" parent="1">
          <mxGeometry x="500" y="290" width="100" height="40" as="geometry" />
        </mxCell>
        <mxCell id="93oh4y61xV02DtYEBU_f-5" value="111" style="shape=mxgraph.bpmn.script_task;html=1;outlineConnect=0;fontSize=18;" vertex="1" parent="1">
          <mxGeometry x="190" y="340" width="124" height="130" as="geometry" />
        </mxCell>
        <mxCell id="QeQzawAQq3YfP2_AsK_G-1" value="Text" style="text;html=1;align=center;verticalAlign=middle;resizable=0;points=[];autosize=1;fontSize=18;" vertex="1" parent="1">
          <mxGeometry x="600" y="390" width="40" height="20" as="geometry" />
        </mxCell>
        <mxCell id="QeQzawAQq3YfP2_AsK_G-2" value="" style="shape=cylinder;whiteSpace=wrap;html=1;boundedLbl=1;backgroundOutline=1;fontSize=18;flipH=1;flipV=0;" vertex="1" parent="1">
          <mxGeometry x="222" y="360" width="60" height="80" as="geometry" />
        </mxCell>
        <mxCell id="QeQzawAQq3YfP2_AsK_G-3" value="" style="shape=table;html=1;whiteSpace=wrap;startSize=0;container=1;collapsible=0;childLayout=tableLayout;" vertex="1" parent="1">
          <mxGeometry x="30" y="80" width="300" height="200" as="geometry" />
        </mxCell>
        <mxCell id="QeQzawAQq3YfP2_AsK_G-4" value="" style="shape=partialRectangle;html=1;whiteSpace=wrap;collapsible=0;dropTarget=0;pointerEvents=0;fillColor=none;top=0;left=0;bottom=0;right=0;points=[[0,0.5],[1,0.5]];portConstraint=eastwest;" vertex="1" parent="QeQzawAQq3YfP2_AsK_G-3">
          <mxGeometry width="300" height="40" as="geometry" />
        </mxCell>
        <mxCell id="QeQzawAQq3YfP2_AsK_G-29" style="shape=partialRectangle;html=1;whiteSpace=wrap;connectable=0;overflow=hidden;fillColor=none;top=0;left=0;bottom=0;right=0;" vertex="1" parent="QeQzawAQq3YfP2_AsK_G-4">
          <mxGeometry width="60" height="40" as="geometry" />
        </mxCell>
        <mxCell id="QeQzawAQq3YfP2_AsK_G-5" value="" style="shape=partialRectangle;html=1;whiteSpace=wrap;connectable=0;overflow=hidden;fillColor=none;top=0;left=0;bottom=0;right=0;" vertex="1" parent="QeQzawAQq3YfP2_AsK_G-4">
          <mxGeometry x="60" width="60" height="40" as="geometry" />
        </mxCell>
        <mxCell id="QeQzawAQq3YfP2_AsK_G-6" value="" style="shape=partialRectangle;html=1;whiteSpace=wrap;connectable=0;overflow=hidden;fillColor=none;top=0;left=0;bottom=0;right=0;" vertex="1" parent="QeQzawAQq3YfP2_AsK_G-4">
          <mxGeometry x="120" width="60" height="40" as="geometry" />
        </mxCell>
        <mxCell id="QeQzawAQq3YfP2_AsK_G-7" value="" style="shape=partialRectangle;html=1;whiteSpace=wrap;connectable=0;overflow=hidden;fillColor=none;top=0;left=0;bottom=0;right=0;" vertex="1" parent="QeQzawAQq3YfP2_AsK_G-4">
          <mxGeometry x="180" width="60" height="40" as="geometry" />
        </mxCell>
        <mxCell id="QeQzawAQq3YfP2_AsK_G-8" value="" style="shape=partialRectangle;html=1;whiteSpace=wrap;connectable=0;overflow=hidden;fillColor=none;top=0;left=0;bottom=0;right=0;" vertex="1" parent="QeQzawAQq3YfP2_AsK_G-4">
          <mxGeometry x="240" width="60" height="40" as="geometry" />
        </mxCell>
        <mxCell id="QeQzawAQq3YfP2_AsK_G-9" value="" style="shape=partialRectangle;html=1;whiteSpace=wrap;collapsible=0;dropTarget=0;pointerEvents=0;fillColor=none;top=0;left=0;bottom=0;right=0;points=[[0,0.5],[1,0.5]];portConstraint=eastwest;" vertex="1" parent="QeQzawAQq3YfP2_AsK_G-3">
          <mxGeometry y="40" width="300" height="40" as="geometry" />
        </mxCell>
        <mxCell id="QeQzawAQq3YfP2_AsK_G-30" style="shape=partialRectangle;html=1;whiteSpace=wrap;connectable=0;overflow=hidden;fillColor=none;top=0;left=0;bottom=0;right=0;" vertex="1" parent="QeQzawAQq3YfP2_AsK_G-9">
          <mxGeometry width="60" height="40" as="geometry" />
        </mxCell>
        <mxCell id="QeQzawAQq3YfP2_AsK_G-10" value="" style="shape=partialRectangle;html=1;whiteSpace=wrap;connectable=0;overflow=hidden;fillColor=none;top=0;left=0;bottom=0;right=0;" vertex="1" parent="QeQzawAQq3YfP2_AsK_G-9">
          <mxGeometry x="60" width="60" height="40" as="geometry" />
        </mxCell>
        <mxCell id="QeQzawAQq3YfP2_AsK_G-11" value="" style="shape=partialRectangle;html=1;whiteSpace=wrap;connectable=0;overflow=hidden;fillColor=none;top=0;left=0;bottom=0;right=0;" vertex="1" parent="QeQzawAQq3YfP2_AsK_G-9">
          <mxGeometry x="120" width="60" height="40" as="geometry" />
        </mxCell>
        <mxCell id="QeQzawAQq3YfP2_AsK_G-12" value="" style="shape=partialRectangle;html=1;whiteSpace=wrap;connectable=0;overflow=hidden;fillColor=none;top=0;left=0;bottom=0;right=0;" vertex="1" parent="QeQzawAQq3YfP2_AsK_G-9">
          <mxGeometry x="180" width="60" height="40" as="geometry" />
        </mxCell>
        <mxCell id="QeQzawAQq3YfP2_AsK_G-13" value="" style="shape=partialRectangle;html=1;whiteSpace=wrap;connectable=0;overflow=hidden;fillColor=none;top=0;left=0;bottom=0;right=0;" vertex="1" parent="QeQzawAQq3YfP2_AsK_G-9">
          <mxGeometry x="240" width="60" height="40" as="geometry" />
        </mxCell>
        <mxCell id="QeQzawAQq3YfP2_AsK_G-14" value="" style="shape=partialRectangle;html=1;whiteSpace=wrap;collapsible=0;dropTarget=0;pointerEvents=0;fillColor=none;top=0;left=0;bottom=0;right=0;points=[[0,0.5],[1,0.5]];portConstraint=eastwest;" vertex="1" parent="QeQzawAQq3YfP2_AsK_G-3">
          <mxGeometry y="80" width="300" height="40" as="geometry" />
        </mxCell>
        <mxCell id="QeQzawAQq3YfP2_AsK_G-31" style="shape=partialRectangle;html=1;whiteSpace=wrap;connectable=0;overflow=hidden;fillColor=none;top=0;left=0;bottom=0;right=0;" vertex="1" parent="QeQzawAQq3YfP2_AsK_G-14">
          <mxGeometry width="60" height="40" as="geometry" />
        </mxCell>
        <mxCell id="QeQzawAQq3YfP2_AsK_G-15" value="" style="shape=partialRectangle;html=1;whiteSpace=wrap;connectable=0;overflow=hidden;fillColor=none;top=0;left=0;bottom=0;right=0;" vertex="1" parent="QeQzawAQq3YfP2_AsK_G-14">
          <mxGeometry x="60" width="60" height="40" as="geometry" />
        </mxCell>
        <mxCell id="QeQzawAQq3YfP2_AsK_G-16" value="" style="shape=partialRectangle;html=1;whiteSpace=wrap;connectable=0;overflow=hidden;fillColor=none;top=0;left=0;bottom=0;right=0;" vertex="1" parent="QeQzawAQq3YfP2_AsK_G-14">
          <mxGeometry x="120" width="60" height="40" as="geometry" />
        </mxCell>
        <mxCell id="QeQzawAQq3YfP2_AsK_G-17" value="" style="shape=partialRectangle;html=1;whiteSpace=wrap;connectable=0;overflow=hidden;fillColor=none;top=0;left=0;bottom=0;right=0;" vertex="1" parent="QeQzawAQq3YfP2_AsK_G-14">
          <mxGeometry x="180" width="60" height="40" as="geometry" />
        </mxCell>
        <mxCell id="QeQzawAQq3YfP2_AsK_G-18" value="" style="shape=partialRectangle;html=1;whiteSpace=wrap;connectable=0;overflow=hidden;fillColor=none;top=0;left=0;bottom=0;right=0;" vertex="1" parent="QeQzawAQq3YfP2_AsK_G-14">
          <mxGeometry x="240" width="60" height="40" as="geometry" />
        </mxCell>
        <mxCell id="QeQzawAQq3YfP2_AsK_G-19" value="" style="shape=partialRectangle;html=1;whiteSpace=wrap;collapsible=0;dropTarget=0;pointerEvents=0;fillColor=none;top=0;left=0;bottom=0;right=0;points=[[0,0.5],[1,0.5]];portConstraint=eastwest;" vertex="1" parent="QeQzawAQq3YfP2_AsK_G-3">
          <mxGeometry y="120" width="300" height="40" as="geometry" />
        </mxCell>
        <mxCell id="QeQzawAQq3YfP2_AsK_G-32" style="shape=partialRectangle;html=1;whiteSpace=wrap;connectable=0;overflow=hidden;fillColor=none;top=0;left=0;bottom=0;right=0;" vertex="1" parent="QeQzawAQq3YfP2_AsK_G-19">
          <mxGeometry width="60" height="40" as="geometry" />
        </mxCell>
        <mxCell id="QeQzawAQq3YfP2_AsK_G-20" value="" style="shape=partialRectangle;html=1;whiteSpace=wrap;connectable=0;overflow=hidden;fillColor=none;top=0;left=0;bottom=0;right=0;" vertex="1" parent="QeQzawAQq3YfP2_AsK_G-19">
          <mxGeometry x="60" width="60" height="40" as="geometry" />
        </mxCell>
        <mxCell id="QeQzawAQq3YfP2_AsK_G-21" value="" style="shape=partialRectangle;html=1;whiteSpace=wrap;connectable=0;overflow=hidden;fillColor=none;top=0;left=0;bottom=0;right=0;" vertex="1" parent="QeQzawAQq3YfP2_AsK_G-19">
          <mxGeometry x="120" width="60" height="40" as="geometry" />
        </mxCell>
        <mxCell id="QeQzawAQq3YfP2_AsK_G-22" value="" style="shape=partialRectangle;html=1;whiteSpace=wrap;connectable=0;overflow=hidden;fillColor=none;top=0;left=0;bottom=0;right=0;" vertex="1" parent="QeQzawAQq3YfP2_AsK_G-19">
          <mxGeometry x="180" width="60" height="40" as="geometry" />
        </mxCell>
        <mxCell id="QeQzawAQq3YfP2_AsK_G-23" value="" style="shape=partialRectangle;html=1;whiteSpace=wrap;connectable=0;overflow=hidden;fillColor=none;top=0;left=0;bottom=0;right=0;" vertex="1" parent="QeQzawAQq3YfP2_AsK_G-19">
          <mxGeometry x="240" width="60" height="40" as="geometry" />
        </mxCell>
        <mxCell id="QeQzawAQq3YfP2_AsK_G-24" value="" style="shape=partialRectangle;html=1;whiteSpace=wrap;collapsible=0;dropTarget=0;pointerEvents=0;fillColor=none;top=0;left=0;bottom=0;right=0;points=[[0,0.5],[1,0.5]];portConstraint=eastwest;" vertex="1" parent="QeQzawAQq3YfP2_AsK_G-3">
          <mxGeometry y="160" width="300" height="40" as="geometry" />
        </mxCell>
        <mxCell id="QeQzawAQq3YfP2_AsK_G-33" style="shape=partialRectangle;html=1;whiteSpace=wrap;connectable=0;overflow=hidden;fillColor=none;top=0;left=0;bottom=0;right=0;" vertex="1" parent="QeQzawAQq3YfP2_AsK_G-24">
          <mxGeometry width="60" height="40" as="geometry" />
        </mxCell>
        <mxCell id="QeQzawAQq3YfP2_AsK_G-25" value="" style="shape=partialRectangle;html=1;whiteSpace=wrap;connectable=0;overflow=hidden;fillColor=none;top=0;left=0;bottom=0;right=0;" vertex="1" parent="QeQzawAQq3YfP2_AsK_G-24">
          <mxGeometry x="60" width="60" height="40" as="geometry" />
        </mxCell>
        <mxCell id="QeQzawAQq3YfP2_AsK_G-26" value="" style="shape=partialRectangle;html=1;whiteSpace=wrap;connectable=0;overflow=hidden;fillColor=none;top=0;left=0;bottom=0;right=0;" vertex="1" parent="QeQzawAQq3YfP2_AsK_G-24">
          <mxGeometry x="120" width="60" height="40" as="geometry" />
        </mxCell>
        <mxCell id="QeQzawAQq3YfP2_AsK_G-27" value="" style="shape=partialRectangle;html=1;whiteSpace=wrap;connectable=0;overflow=hidden;fillColor=none;top=0;left=0;bottom=0;right=0;" vertex="1" parent="QeQzawAQq3YfP2_AsK_G-24">
          <mxGeometry x="180" width="60" height="40" as="geometry" />
        </mxCell>
        <mxCell id="QeQzawAQq3YfP2_AsK_G-28" value="" style="shape=partialRectangle;html=1;whiteSpace=wrap;connectable=0;overflow=hidden;fillColor=none;top=0;left=0;bottom=0;right=0;" vertex="1" parent="QeQzawAQq3YfP2_AsK_G-24">
          <mxGeometry x="240" width="60" height="40" as="geometry" />
        </mxCell>
        <mxCell id="QeQzawAQq3YfP2_AsK_G-34" value="我的颜色正好字看的很清楚" style="rounded=1;whiteSpace=wrap;html=1;strokeWidth=2;fillWeight=4;hachureGap=8;hachureAngle=45;fillColor=#eeeeee;sketch=1;fontSize=17;direction=east;strokeColor=#36393d;" vertex="1" parent="1">
          <mxGeometry x="400" y="370" width="130" height="70" as="geometry" />
        </mxCell>
        <mxCell id="QeQzawAQq3YfP2_AsK_G-35" value="" style="endArrow=none;dashed=1;html=1;fontSize=17;" edge="1" parent="1">
          <mxGeometry width="50" height="50" relative="1" as="geometry">
            <mxPoint x="330" y="330" as="sourcePoint" />
            <mxPoint x="660" y="330" as="targetPoint" />
          </mxGeometry>
        </mxCell>
        <mxCell id="QeQzawAQq3YfP2_AsK_G-36" value="" style="rounded=0;whiteSpace=wrap;html=1;strokeColor=#000000;fontSize=17;" vertex="1" parent="1">
          <mxGeometry x="30" y="350" width="60" height="40" as="geometry" />
        </mxCell>
        <mxCell id="QeQzawAQq3YfP2_AsK_G-37" value="" style="rounded=0;whiteSpace=wrap;html=1;strokeColor=#000000;fontSize=17;comic=1;" vertex="1" parent="1">
          <mxGeometry x="90" y="350" width="60" height="40" as="geometry" />
        </mxCell>
      </root>
    </mxGraphModel>
  </diagram>
  <diagram id="8vtRmSZP7ILR-ZqhxsMn" name="Page-2">
    <mxGraphModel dx="314" dy="225" grid="1" gridSize="10" guides="1" tooltips="1" connect="1" arrows="1" fold="1" page="1" pageScale="1" pageWidth="827" pageHeight="1169" math="0" shadow="0">
      <root>
        <mxCell id="CXdWOXuWcudHWDhY1Meo-0" />
        <mxCell id="CXdWOXuWcudHWDhY1Meo-1" parent="CXdWOXuWcudHWDhY1Meo-0" />
        <mxCell id="CXdWOXuWcudHWDhY1Meo-2" value="" style="rounded=1;whiteSpace=wrap;html=1;comic=1;strokeColor=#000000;fontSize=17;" vertex="1" parent="CXdWOXuWcudHWDhY1Meo-1">
          <mxGeometry x="310" y="60" width="120" height="60" as="geometry" />
        </mxCell>
        <mxCell id="CXdWOXuWcudHWDhY1Meo-3" value="" style="rhombus;whiteSpace=wrap;html=1;comic=1;strokeColor=#000000;fontSize=17;" vertex="1" parent="CXdWOXuWcudHWDhY1Meo-1">
          <mxGeometry x="330" y="200" width="80" height="80" as="geometry" />
        </mxCell>
        <mxCell id="CXdWOXuWcudHWDhY1Meo-4" value="" style="endArrow=classic;html=1;fontSize=17;entryX=0.5;entryY=0;entryDx=0;entryDy=0;" edge="1" parent="CXdWOXuWcudHWDhY1Meo-1" target="CXdWOXuWcudHWDhY1Meo-3">
          <mxGeometry width="50" height="50" relative="1" as="geometry">
            <mxPoint x="369.5" y="120" as="sourcePoint" />
            <mxPoint x="369.5" y="230" as="targetPoint" />
          </mxGeometry>
        </mxCell>
        <mxCell id="CXdWOXuWcudHWDhY1Meo-5" value="" style="endArrow=classic;html=1;fontSize=17;" edge="1" parent="CXdWOXuWcudHWDhY1Meo-1">
          <mxGeometry relative="1" as="geometry">
            <mxPoint x="590" y="70" as="sourcePoint" />
            <mxPoint x="590" y="170" as="targetPoint" />
          </mxGeometry>
        </mxCell>
        <mxCell id="CXdWOXuWcudHWDhY1Meo-6" value="1" style="edgeLabel;resizable=0;html=1;align=center;verticalAlign=middle;" connectable="0" vertex="1" parent="CXdWOXuWcudHWDhY1Meo-5">
          <mxGeometry relative="1" as="geometry">
            <mxPoint as="offset" />
          </mxGeometry>
        </mxCell>
      </root>
    </mxGraphModel>
  </diagram>
</mxfile>
